<?xml version="1.0" encoding="utf-8"?>
<!-- Generator: Adobe Illustrator 15.0.0, SVG Export Plug-In  -->
<!DOCTYPE svg PUBLIC "-//W3C//DTD SVG 1.1//EN" "http://www.w3.org/Graphics/SVG/1.1/DTD/svg11.dtd" [
	<!ENTITY ns_flows "http://ns.adobe.com/Flows/1.0/">
]>
<svg version="1.1"
	 xmlns="http://www.w3.org/2000/svg" xmlns:xlink="http://www.w3.org/1999/xlink" xmlns:a="http://ns.adobe.com/AdobeSVGViewerExtensions/3.0/"
	 x="0px" y="0px" width="100px" height="100px" viewBox="-0.505 0 100 100" enable-background="new -0.505 0 100 100"
	 xml:space="preserve">
<defs>
</defs>
<path fill="none" stroke="#FFFFFF" stroke-width="5" stroke-linecap="round" stroke-linejoin="round" stroke-miterlimit="10" d="
	M87.57,2.5H11.415C6.491,2.5,2.5,6.491,2.5,11.419v61.904c0,4.924,3.991,8.918,8.916,8.918h6.341
	c-0.581,4.766-2.746,11.196-9.745,14.962c-0.153,0.087-0.081,0.316,0.093,0.296c4.458-0.609,24.796-3.921,36.522-15.257h42.947
	c4.927,0,8.916-3.994,8.916-8.919V11.419C96.488,6.491,92.497,2.5,87.57,2.5z"/>
<rect x="34.502" y="35.846" fill="none" stroke="#FFFFFF" stroke-width="5" stroke-linecap="round" stroke-linejoin="round" stroke-miterlimit="10" width="34.065" height="30.282"/>
<polyline fill="none" stroke="#FFFFFF" stroke-width="5" stroke-linecap="round" stroke-linejoin="round" stroke-miterlimit="10" points="
	23.146,35.846 51.062,10.03 79.923,35.846 "/>
<rect x="46.328" y="51.031" fill="none" stroke="#FFFFFF" stroke-width="5" stroke-linecap="round" stroke-linejoin="round" stroke-miterlimit="10" width="10.411" height="15.097"/>
</svg>
