<?xml version="1.0" encoding="utf-8"?>
<!-- Generator: Adobe Illustrator 15.0.0, SVG Export Plug-In  -->
<!DOCTYPE svg PUBLIC "-//W3C//DTD SVG 1.1//EN" "http://www.w3.org/Graphics/SVG/1.1/DTD/svg11.dtd" [
	<!ENTITY ns_flows "http://ns.adobe.com/Flows/1.0/">
]>
<svg version="1.1"
	 xmlns="http://www.w3.org/2000/svg" xmlns:xlink="http://www.w3.org/1999/xlink" xmlns:a="http://ns.adobe.com/AdobeSVGViewerExtensions/3.0/"
	 x="0px" y="0px" width="100px" height="100px" viewBox="-0.34 0 100 100" enable-background="new -0.34 0 100 100"
	 xml:space="preserve">
<defs>
</defs>
<path fill="none" stroke="#FFFFFF" stroke-width="5" stroke-linecap="round" stroke-linejoin="round" stroke-miterlimit="10" d="
	M77.639,57.168v39.443c0,0.493-0.396,0.889-0.887,0.889h-54.64c-0.487,0-0.886-0.396-0.886-0.889V79.462"/>
<path fill="none" stroke="#FFFFFF" stroke-width="5" stroke-linecap="round" stroke-linejoin="round" stroke-miterlimit="10" d="
	M21.229,43.706V3.389c0-0.494,0.396-0.889,0.886-0.889h54.637c0.487,0,0.887,0.395,0.887,0.889v18.035"/>
<line fill="none" stroke="#FFFFFF" stroke-width="5" stroke-linecap="round" stroke-linejoin="round" stroke-miterlimit="10" x1="21.229" y1="85.879" x2="77.639" y2="85.879"/>
<line fill="none" stroke="#FFFFFF" stroke-width="5" stroke-linecap="round" stroke-linejoin="round" stroke-miterlimit="10" x1="21.229" y1="15.129" x2="77.639" y2="15.129"/>
<line fill="none" stroke="#FFFFFF" stroke-width="5" stroke-linecap="round" stroke-linejoin="round" stroke-miterlimit="10" x1="43.521" y1="91.991" x2="55.743" y2="91.991"/>
<path fill="none" stroke="#FFFFFF" stroke-width="5" stroke-linecap="round" stroke-linejoin="round" stroke-miterlimit="10" d="
	M33.924,74.226c7.208-7.204,6.976-19.038-0.7-25.948c-6.87-6.183-17.463-6.054-24.189,0.281c-5.869,5.527-7.145,14.004-3.84,20.824
	l-1.501,5.601l-1.165,4.339c-0.163,0.615,0.401,1.178,1.018,1.013l4.338-1.161l5.601-1.501
	C20.148,80.904,28.396,79.754,33.924,74.226z"/>
<path fill="none" stroke="#FFFFFF" stroke-width="5" stroke-linecap="round" stroke-linejoin="round" stroke-miterlimit="10" d="
	M65.396,51.94c-7.21-7.21-6.979-19.042,0.701-25.951c6.866-6.183,17.461-6.055,24.188,0.283c5.867,5.529,7.145,14.005,3.839,20.822
	l1.503,5.604l1.163,4.341c0.169,0.617-0.396,1.183-1.013,1.017l-4.338-1.165l-5.605-1.502C79.171,58.617,70.924,57.472,65.396,51.94
	z"/>
<line fill="none" stroke="#FFFFFF" stroke-width="5" stroke-linecap="round" stroke-linejoin="round" stroke-miterlimit="10" x1="12.257" y1="57.951" x2="30.829" y2="57.951"/>
<line fill="none" stroke="#FFFFFF" stroke-width="5" stroke-linecap="round" stroke-linejoin="round" stroke-miterlimit="10" x1="12.257" y1="66.374" x2="30.829" y2="66.374"/>
<line fill="none" stroke="#FFFFFF" stroke-width="5" stroke-linecap="round" stroke-linejoin="round" stroke-miterlimit="10" x1="69.376" y1="35.714" x2="87.943" y2="35.714"/>
<line fill="none" stroke="#FFFFFF" stroke-width="5" stroke-linecap="round" stroke-linejoin="round" stroke-miterlimit="10" x1="69.376" y1="44.129" x2="87.943" y2="44.129"/>
</svg>
